<svg width="34" height="34" viewBox="0 0 34 34" fill="none" xmlns="http://www.w3.org/2000/svg">
<path d="M32.75 1.27499C32.5187 1.04324 32.244 0.859367 31.9415 0.733913C31.6391 0.60846 31.3149 0.543884 30.9875 0.543884C30.6601 0.543884 30.3359 0.60846 30.0334 0.733913C29.731 0.859367 29.4563 1.04324 29.225 1.27499L17 13.475L4.77499 1.24999C4.54354 1.01854 4.26876 0.834939 3.96635 0.709677C3.66394 0.584414 3.33982 0.519943 3.01249 0.519943C2.68517 0.519943 2.36105 0.584414 2.05864 0.709677C1.75623 0.834939 1.48145 1.01854 1.24999 1.24999C1.01854 1.48145 0.834939 1.75623 0.709677 2.05864C0.584414 2.36105 0.519943 2.68517 0.519943 3.01249C0.519943 3.33982 0.584414 3.66394 0.709677 3.96635C0.834939 4.26876 1.01854 4.54354 1.24999 4.77499L13.475 17L1.24999 29.225C1.01854 29.4564 0.834939 29.7312 0.709677 30.0336C0.584414 30.336 0.519943 30.6602 0.519943 30.9875C0.519943 31.3148 0.584414 31.6389 0.709677 31.9413C0.834939 32.2438 1.01854 32.5185 1.24999 32.75C1.48145 32.9814 1.75623 33.165 2.05864 33.2903C2.36105 33.4156 2.68517 33.48 3.01249 33.48C3.33982 33.48 3.66394 33.4156 3.96635 33.2903C4.26876 33.165 4.54354 32.9814 4.77499 32.75L17 20.525L29.225 32.75C29.4564 32.9814 29.7312 33.165 30.0336 33.2903C30.336 33.4156 30.6602 33.48 30.9875 33.48C31.3148 33.48 31.6389 33.4156 31.9413 33.2903C32.2438 33.165 32.5185 32.9814 32.75 32.75C32.9814 32.5185 33.165 32.2438 33.2903 31.9413C33.4156 31.6389 33.48 31.3148 33.48 30.9875C33.48 30.6602 33.4156 30.336 33.2903 30.0336C33.165 29.7312 32.9814 29.4564 32.75 29.225L20.525 17L32.75 4.77499C33.7 3.82499 33.7 2.22499 32.75 1.27499V1.27499Z" fill="#141213"/>
</svg>
