<svg width="60" height="60" viewBox="0 0 60 60" fill="none" xmlns="http://www.w3.org/2000/svg">
<path d="M30 54.05C29.6317 54.0489 29.2742 53.9258 28.9833 53.7C19.7167 46.5 13.3333 40.3 8.86666 34.1834C3.16666 26.3667 1.86666 19.15 4.99999 12.7333C7.23333 8.15002 13.65 4.40002 21.15 6.58335C24.7259 7.61625 27.8458 9.83132 30 12.8667C32.1542 9.83132 35.2741 7.61625 38.85 6.58335C46.3333 4.43335 52.7667 8.15002 55 12.7333C58.1333 19.15 56.8333 26.3667 51.1333 34.1834C46.6667 40.3 40.2833 46.5 31.0167 53.7C30.7257 53.9258 30.3682 54.0489 30 54.05V54.05ZM16.8833 9.30002C15.0987 9.23056 13.3289 9.64843 11.7639 10.5088C10.1989 11.3691 8.89766 12.6394 7.99999 14.1834C5.41666 19.4834 6.58333 25.3833 11.5667 32.2C16.8626 39.031 23.064 45.109 30 50.2667C36.9349 45.1142 43.1362 39.0418 48.4333 32.2167C53.4333 25.3834 54.5833 19.4834 52 14.2C50.3333 10.8667 45.3333 8.21668 39.7667 9.78335C37.9817 10.3109 36.327 11.2062 34.909 12.4118C33.491 13.6174 32.3411 15.1065 31.5333 16.7833C31.4078 17.089 31.1942 17.3505 30.9196 17.5345C30.6451 17.7185 30.3221 17.8167 29.9917 17.8167C29.6612 17.8167 29.3382 17.7185 29.0637 17.5345C28.7892 17.3505 28.5756 17.089 28.45 16.7833C27.6483 15.1023 26.5004 13.6097 25.0815 12.4034C23.6626 11.197 22.0048 10.3042 20.2167 9.78335C19.1333 9.46869 18.0115 9.30602 16.8833 9.30002V9.30002Z" fill="#e7e4e3"/>
</svg>
